<mxfile host="app.diagrams.net" modified="2023-04-10T17:06:11.777Z" agent="Mozilla/5.0 (Windows NT 10.0; Win64; x64) AppleWebKit/537.36 (KHTML, like Gecko) Chrome/112.0.0.0 Safari/537.36" version="21.1.5" etag="_D2Asd8LV3shLy13LZOu" type="github">
  <diagram name="Page-1" id="O0pIhToUY57X0xFC-i0J">
    <mxGraphModel>
      <root>
        <mxCell id="0" />
        <mxCell id="1" parent="0" />
      </root>
    </mxGraphModel>
  </diagram>
</mxfile>
